<svg width="62" height="49" viewBox="0 0 53 41" fill="none" xmlns="http://www.w3.org/2000/svg">
<g clip-path="url(#clip0_414_147)">
<path d="M52.2956 24.9804C52.2956 33.4676 40.7773 40.3382 26.5646 40.3382C12.2845 40.2709 0.766113 33.4003 0.766113 24.9804C0.766113 24.5089 0.833472 24.0374 0.900831 23.6332C2.04593 15.8196 13.0928 9.68994 26.5646 9.68994C40.0363 9.68994 51.0832 15.8196 52.2283 23.7006C52.2283 24.0374 52.2956 24.5089 52.2956 24.9804Z" fill="#F7AD1A"/>
<path d="M52.161 23.6333C51.7568 25.5193 50.2749 27.0686 48.9951 29.0894C47.7153 31.1101 45.8966 32.7267 43.2022 32.7267C41.8551 32.7267 40.3732 33.2656 39.2281 34.1413C37.4094 35.5558 34.9171 35.96 32.6942 35.4885C30.7408 35.0843 28.518 35.219 26.4972 35.8926C23.1966 36.903 20.3676 36.5662 17.6059 35.0843C15.1136 33.7371 12.4866 32.9962 10.0617 32.7941C6.49164 32.5247 4.47088 31.0428 3.1237 28.2137C2.31539 26.4624 1.17029 25.1825 0.833496 23.6333C1.9786 15.8197 13.0255 9.69 26.4972 9.69C39.969 9.62264 51.0159 15.7523 52.161 23.6333Z" fill="#EE8034"/>
<path d="M52.2956 20.6694C52.2956 23.027 50.5443 24.7109 49.0624 27.0685C47.7826 29.0893 45.9639 30.7059 43.2696 30.7059C41.9224 30.7059 40.4405 31.2448 39.2954 32.1204C37.4093 33.535 34.9844 33.9391 32.7616 33.4676C30.8082 33.0634 28.5853 33.1982 26.5646 33.8717C23.264 34.8821 20.4349 34.5453 17.6732 33.0634C15.1809 31.7163 12.5539 30.9753 10.129 30.8406C6.49162 30.5712 4.47085 29.0219 3.12367 26.1928C2.18065 24.1721 0.766113 22.6228 0.766113 20.6694C0.766113 13.3946 12.2845 7.53442 26.4972 7.53442C40.7099 7.53442 52.2956 13.3946 52.2956 20.6694Z" fill="#F7ADBB"/>
<path d="M52.4978 16.2912C52.4978 24.7784 40.9795 31.5817 26.7667 31.5817C12.554 31.5817 1.03564 24.7111 1.03564 16.2912C1.03564 15.4829 1.17036 14.6746 1.37244 13.8663C3.25849 6.59152 13.9012 1.00073 26.6994 1.00073C39.5649 1.00073 50.2076 6.59152 52.161 13.9336C52.3631 14.6746 52.4978 15.4829 52.4978 16.2912Z" fill="#EE8034"/>
<path d="M51.959 13.6641C50.0056 20.9389 39.3629 26.5297 26.4973 26.5297C13.6991 26.5297 3.05643 20.9389 1.10303 13.6641C3.05643 6.32199 13.6991 0.731201 26.4973 0.731201C39.3629 0.731201 50.0056 6.32199 51.959 13.6641Z" fill="#F7AD1A"/>
<path d="M28.3834 5.6485C29.3264 8.41021 24.9481 12.317 18.6837 14.4051C12.4194 16.4933 6.55914 16.0218 5.61612 13.3274C4.67309 10.5657 9.05142 6.65888 15.3158 4.57075C21.5802 2.41527 27.4404 2.95414 28.3834 5.6485Z" fill="#FFC928"/>
<path d="M35.2538 12.6538C34.9844 12.6538 34.9844 13.1253 35.2538 13.1253C35.5906 13.058 35.5906 12.6538 35.2538 12.6538Z" fill="#EE8034"/>
<path d="M38.4873 8.94897C37.6116 8.94897 37.6116 10.3635 38.4873 10.3635C39.363 10.3635 39.363 8.94897 38.4873 8.94897Z" fill="#EE8034"/>
<path d="M28.1138 16.291C27.2381 16.291 27.2381 17.6382 28.1138 17.6382C28.9894 17.6382 29.0568 16.291 28.1138 16.291Z" fill="#EE8034"/>
<path d="M16.7304 18.2446H16.663C16.3936 18.2446 16.3936 18.7161 16.663 18.7161H16.7304C16.9998 18.7161 16.9998 18.2446 16.7304 18.2446Z" fill="#EE8034"/>
<path d="M26.834 12.1822C26.7666 12.1822 26.834 12.1822 26.834 12.1822C26.5645 11.9801 26.2277 12.3169 26.4298 12.519C26.5645 12.5863 26.6319 12.6537 26.834 12.6537C27.1708 12.6537 27.1708 12.1822 26.834 12.1822Z" fill="#EE8034"/>
<path d="M30.1347 3.08862C29.8653 3.08862 29.8653 3.56014 30.1347 3.56014C30.4041 3.56014 30.4041 3.08862 30.1347 3.08862Z" fill="#EE8034"/>
<path d="M20.3002 20.3999H20.0982C19.2225 20.3999 19.2225 21.7471 20.0982 21.7471H20.3002C21.2433 21.7471 21.2433 20.3999 20.3002 20.3999Z" fill="#EE8034"/>
<path d="M5.27938 13.5967C4.94258 13.3946 4.53843 13.5293 4.33635 13.8661C4.20164 14.0008 4.13428 14.2029 4.13428 14.405C4.13428 14.8091 4.47107 15.0785 4.80787 15.0785C5.14466 15.0785 5.4141 14.8091 5.48145 14.4723C5.75089 14.2029 5.54881 13.7314 5.27938 13.5967Z" fill="#EE8034"/>
<path d="M36.3316 21.0735C35.4559 21.0735 35.4559 22.488 36.3316 22.488C37.2746 22.4207 37.2746 21.0735 36.3316 21.0735Z" fill="#EE8034"/>
</g>
<defs>
<clipPath id="clip0_414_147">
<rect width="51.7316" height="39.5397" fill="white" transform="translate(0.766113 0.731201)"/>
</clipPath>
</defs>
</svg>
