<svg width="62" height="49" viewBox="0 0 59 45" fill="none" xmlns="http://www.w3.org/2000/svg">
<g clip-path="url(#clip0_414_129)">
<path d="M58.0146 27.5978C58.0146 37.2571 45.0499 45.0765 29.0526 45.0765C12.9794 44.9999 0.0146484 37.1805 0.0146484 27.5978C0.0146484 27.0612 0.0904654 26.5246 0.166282 26.0646C1.45517 17.172 13.8892 10.1958 29.0526 10.1958C44.216 10.1958 56.6499 17.1719 57.9388 26.1413C57.9388 26.5246 58.0146 27.0612 58.0146 27.5978Z" fill="#F281A3"/>
<path d="M57.8629 26.0648C57.408 28.2113 55.74 29.9745 54.2995 32.2743C52.859 34.5741 50.8119 36.414 47.7792 36.414C46.2629 36.414 44.5949 37.0273 43.306 38.0239C41.259 39.6338 38.4537 40.0937 35.9518 39.5571C33.7531 39.0971 31.2511 39.2505 28.9766 40.0171C25.2616 41.167 22.0773 40.7837 18.9688 39.0971C16.1635 37.5639 13.2067 36.7206 10.4773 36.4907C6.45896 36.184 4.18445 34.4975 2.66811 31.2777C1.75831 29.2845 0.469417 27.828 0.090332 26.0648C1.37922 17.1721 13.8132 10.1959 28.9766 10.1959C44.14 10.1193 56.574 17.0954 57.8629 26.0648Z" fill="#EE5D7C"/>
<path d="M58.0146 22.6916C58.0146 25.3747 56.0434 27.2912 54.3754 29.9744C52.9349 32.2742 50.8879 34.1141 47.8552 34.1141C46.3388 34.1141 44.6709 34.7273 43.382 35.7239C41.2591 37.3338 38.5297 37.7938 36.0277 37.2572C33.829 36.7972 31.3271 36.9505 29.0526 37.7171C25.3375 38.867 22.1532 38.4837 19.0447 36.7972C16.2395 35.264 13.2826 34.4207 10.5532 34.2674C6.45909 33.9607 4.18458 32.1975 2.66824 28.9778C1.60681 26.6779 0.0146484 24.9147 0.0146484 22.6916C0.0146484 14.4122 12.9794 7.74268 28.9767 7.74268C44.9741 7.74268 58.0146 14.4122 58.0146 22.6916Z" fill="#AAD7D4"/>
<path d="M58.0146 17.4787C58.0146 27.138 45.0499 34.8807 29.0526 34.8807C12.9794 34.8807 0.0146484 27.0613 0.0146484 17.4787C0.0146484 16.5588 0.166282 15.6388 0.393733 14.7189C2.59243 6.36286 14.5715 0 28.9767 0C43.382 0 55.4369 6.36286 57.6356 14.7189C57.863 15.5622 58.0146 16.4821 58.0146 17.4787Z" fill="#EE5D7C"/>
<path d="M57.6354 14.7189C55.4367 22.9983 43.4576 29.3612 28.9766 29.3612C14.4955 29.3612 2.59225 22.9983 0.393555 14.7189C2.59225 6.36286 14.5713 0 28.9766 0C43.3818 0 55.4367 6.36286 57.6354 14.7189Z" fill="#F281A3"/>
<path d="M31.0996 5.59624C32.1611 8.73934 27.233 13.1857 20.182 15.5622C13.131 17.9387 6.53492 17.402 5.47348 14.3356C4.41204 11.1925 9.34015 6.74615 16.3911 4.36966C23.4421 1.91651 30.0382 2.5298 31.0996 5.59624Z" fill="#F2AEBD"/>
<path d="M38.8329 13.5691C38.5297 13.5691 38.5297 14.1057 38.8329 14.1057C39.212 14.0291 39.212 13.5691 38.8329 13.5691Z" fill="#EE3686"/>
<path d="M42.4721 9.35254C41.4865 9.35254 41.4865 10.8858 42.4721 10.8858C43.4577 10.8858 43.4577 9.35254 42.4721 9.35254Z" fill="#EE3686"/>
<path d="M30.7963 17.7087C29.8107 17.7087 29.8107 19.242 30.7963 19.242C31.8578 19.3186 31.8578 17.7087 30.7963 17.7087Z" fill="#EE3686"/>
<path d="M17.9834 19.9319H17.9076C17.6044 19.9319 17.6044 20.4685 17.9076 20.4685H17.9834C18.2867 20.4685 18.2867 19.9319 17.9834 19.9319Z" fill="#EE3686"/>
<path d="M29.3558 13.0323C29.28 13.0323 29.3558 13.0323 29.3558 13.0323C29.0526 12.8024 28.6735 13.1857 28.9009 13.4156C29.0526 13.4923 29.1284 13.569 29.3558 13.569C29.7349 13.569 29.7349 13.0323 29.3558 13.0323Z" fill="#EE3686"/>
<path d="M33.0707 2.68311C32.7674 2.68311 32.7674 3.21973 33.0707 3.21973C33.374 3.21973 33.374 2.68311 33.0707 2.68311Z" fill="#EE3686"/>
<path d="M22.0013 22.385H21.7739C20.7883 22.385 20.7883 23.9949 21.7739 23.9949H22.0013C23.0628 23.9182 23.0628 22.385 22.0013 22.385Z" fill="#EE3686"/>
<path d="M5.09455 14.6422C4.71547 14.4123 4.26057 14.5656 4.03312 14.9489C3.88148 15.1022 3.80566 15.3322 3.80566 15.5622C3.80566 16.0221 4.18475 16.3288 4.56383 16.3288C4.94292 16.3288 5.24619 16.0221 5.322 15.6388C5.62527 15.3322 5.39782 14.7956 5.09455 14.6422Z" fill="#EE3686"/>
<path d="M40.0459 23.1516C39.0602 23.1516 39.0602 24.6848 40.0459 24.6848C41.1073 24.6848 41.1073 23.1516 40.0459 23.1516Z" fill="#EE3686"/>
</g>
<defs>
<clipPath id="clip0_414_129">
<rect width="58" height="45" fill="white" transform="translate(0.0146484)"/>
</clipPath>
</defs>
</svg>
