<svg width="62" height="49" viewBox="0 0 62 49" fill="none" xmlns="http://www.w3.org/2000/svg">
<g clip-path="url(#clip0_414_111)">
<path d="M61.7897 29.713C61.7897 39.8842 47.9859 48.1181 30.9532 48.1181C13.8397 48.0373 0.0358887 39.8035 0.0358887 29.713C0.0358887 29.1479 0.116613 28.5829 0.197337 28.0985C1.56964 18.7345 14.8084 11.3887 30.9532 11.3887C47.0979 11.3887 60.3367 18.7345 61.709 28.1792C61.709 28.5829 61.7897 29.1479 61.7897 29.713Z" fill="#78CCCA"/>
<path d="M61.6283 28.0985C61.144 30.3587 59.3681 32.2154 57.8343 34.6371C56.3006 37.0588 54.121 38.9962 50.8921 38.9962C49.2776 38.9962 47.5016 39.642 46.1293 40.6914C43.9498 42.3866 40.963 42.8709 38.2991 42.3059C35.9581 41.8215 33.2942 41.983 30.8725 42.7902C26.917 44.0011 23.5266 43.5974 20.217 41.8215C17.2302 40.207 14.0819 39.3191 11.1759 39.0769C6.89751 38.754 4.47579 36.9781 2.86131 33.5877C1.89263 31.4889 0.520319 29.9551 0.116699 28.0985C1.48901 18.7345 14.7277 11.3886 30.8725 11.3886C47.0173 11.3079 60.256 18.6538 61.6283 28.0985Z" fill="#5EC4BA"/>
<path d="M61.7897 24.5466C61.7897 27.3719 59.6909 29.39 57.915 32.2154C56.3812 34.6371 54.2017 36.5745 50.9727 36.5745C49.3582 36.5745 47.5823 37.2203 46.21 38.2697C43.9497 39.9649 41.0437 40.4492 38.3798 39.8841C36.0388 39.3998 33.3749 39.5612 30.9532 40.3685C26.9977 41.5793 23.6073 41.1757 20.2976 39.3998C17.3108 37.7853 14.1626 36.8974 11.2565 36.7359C6.89742 36.413 4.47571 34.5564 2.86123 31.166C1.73109 28.7442 0.0358887 26.8876 0.0358887 24.5466C0.0358887 15.8284 13.8397 8.80542 30.8724 8.80542C47.9859 8.80542 61.7897 15.8284 61.7897 24.5466Z" fill="#EB5660"/>
<path d="M61.7897 19.0574C61.7897 29.2286 47.9859 37.3817 30.9532 37.3817C13.8397 37.3817 0.0358887 29.1479 0.0358887 19.0574C0.0358887 18.0887 0.197337 17.12 0.439508 16.1513C2.7805 7.35243 15.5349 0.652344 30.8724 0.652344C46.2907 0.652344 59.0451 7.35243 61.3861 16.1513C61.6283 17.0393 61.7897 18.008 61.7897 19.0574Z" fill="#5EC4BA"/>
<path d="M61.386 16.8779C59.045 25.6768 46.2906 32.3769 30.8724 32.3769C15.5348 32.3769 2.78045 25.6768 0.439453 16.8779C2.78045 8.07899 15.5348 1.37891 30.8724 1.37891C46.2906 1.37891 59.045 8.07899 61.386 16.8779Z" fill="#78CCCA"/>
<path d="M33.1327 6.54518C34.2629 9.85486 29.0158 14.5368 21.5085 17.0393C14.0011 19.6225 6.97816 18.9767 5.84803 15.7477C4.71789 12.438 9.96495 7.75604 17.4723 5.2536C24.9796 2.67043 32.0026 3.31622 33.1327 6.54518Z" fill="#9BD7D5"/>
<path d="M41.3667 14.9404C41.0438 14.9404 41.0438 15.5055 41.3667 15.5055C41.7703 15.4248 41.7703 14.9404 41.3667 14.9404Z" fill="#5EC4BA"/>
<path d="M45.2414 10.5007C44.192 10.5007 44.192 12.1152 45.2414 12.1152C46.2908 12.1152 46.2908 10.5007 45.2414 10.5007Z" fill="#5EC4BA"/>
<path d="M32.8098 19.2996C31.7604 19.2996 31.7604 20.9948 32.8098 20.9948C33.9399 20.9948 33.9399 19.2996 32.8098 19.2996Z" fill="#5EC4BA"/>
<path d="M19.1674 21.6406H19.0867C18.7638 21.6406 18.7638 22.2057 19.0867 22.2057H19.1674C19.4903 22.2057 19.4903 21.6406 19.1674 21.6406Z" fill="#5EC4BA"/>
<path d="M31.2758 14.3755H31.1951C30.9529 14.1333 30.5493 14.5369 30.7915 14.7791C30.9529 14.8598 31.0336 14.9405 31.2758 14.9405C31.6794 14.9405 31.6794 14.3755 31.2758 14.3755Z" fill="#5EC4BA"/>
<path d="M35.2314 3.47778C34.9085 3.47778 34.9085 4.04285 35.2314 4.04285C35.5543 4.04285 35.5543 3.47778 35.2314 3.47778Z" fill="#7AC143"/>
<path d="M23.4457 24.2236H23.2036C22.1542 24.2236 22.1542 25.9188 23.2036 25.9188H23.4457C24.5759 25.8381 24.5759 24.2236 23.4457 24.2236Z" fill="#5EC4BA"/>
<path d="M5.44433 16.0706C5.04071 15.8284 4.55637 15.9898 4.31419 16.3935C4.15275 16.5549 4.07202 16.7971 4.07202 17.0393C4.07202 17.5236 4.47564 17.8465 4.87926 17.8465C5.28288 17.8465 5.60578 17.5236 5.6865 17.12C6.0094 16.7971 5.76722 16.232 5.44433 16.0706Z" fill="#5EC4BA"/>
<path d="M42.6582 25.031C41.6087 25.031 41.6087 26.6455 42.6582 26.6455C43.7076 26.6455 43.7883 25.031 42.6582 25.031Z" fill="#5EC4BA"/>
</g>
<defs>
<clipPath id="clip0_414_111">
<rect width="61.7538" height="47.3849" fill="white" transform="translate(0.0358887 0.652344)"/>
</clipPath>
</defs>
</svg>
